# xmcd
#
# Track frame offsets:
#	150
#	19978
#	27439
#	35132
#	56367
#	70096
#	81545
#	96448
#	110192
#	124541
#	134760
#	156763
#	161790
#	174287
#	176264
#	182949
#
# Disc length: 2797 seconds
#
# Revision: 1
# Processed by: cddbd v1.5.1PL0 Copyright (c) Steve Scherf et al.
# Submitted via: audiograbber 1.82.02
#
DISCID=e50aeb10
DTITLE=Warwick Moss - If I Were A Ghost
DYEAR=1999
DGENRE=Country
TTITLE0=Girl In The Bonnet
TTITLE1=The Man With No Past
TTITLE2=Now Or Then
TTITLE3=The Ghost That Is Drought
TTITLE4=The Kelpy Pup
TTITLE5=If I Were A Ghost
TTITLE6=Jack
TTITLE7=Hiding Under Hats
TTITLE8=The Old Black Crow
TTITLE9=Black Cockatoos
TTITLE10=Lady And The Dream
TTITLE11=Five-Twenty-Nine
TTITLE12=Eyes Of The Ancients
TTITLE13=Poetry In Chalk
TTITLE14=Sunrise Showdown
TTITLE15=Why And Wherefore
EXTD=
EXTT0=
EXTT1=
EXTT2=
EXTT3=
EXTT4=
EXTT5=
EXTT6=
EXTT7=
EXTT8=
EXTT9=
EXTT10=
EXTT11=
EXTT12=
EXTT13=
EXTT14=
EXTT15=
PLAYORDER=
